<svg width="96" height="96" version="1.1" xmlns="http://www.w3.org/2000/svg" desc="Created with imagetracer.js version 1.2.6" ><path fill="rgb(0,0,0)" stroke="rgb(0,0,0)" stroke-width="1" opacity="0" d="M 0 0 L 96 0 L 96 96 L 0 96 L 0 0 Z M 57 8 L 55 9 L 52 13 L 53 22 L 57 24 L 66 23 L 68 20 L 67 11 Q 64 7 57 8 Z M 46 24 L 44 25 L 28 42 L 29 50 L 43 58 L 44 59 L 44 76 L 52 76 L 52 55 L 46 48 L 54 41 L 64 49 L 80 49 L 80 40 L 69 40 L 67 39 L 59 30 L 54 24 L 46 24 Z M 19 56 L 15 58 L 8 67 Q 6 77 10 82 L 19 88 Q 29 90 34 86 L 40 78 Q 42 67 38 63 Q 34 54 19 56 Z M 67 56 L 63 58 L 56 67 Q 54 77 58 82 L 67 88 Q 77 90 82 86 L 88 78 Q 90 67 86 63 Q 82 54 67 56 Z " /><path fill="rgb(0,0,0)" stroke="rgb(0,0,0)" stroke-width="1" opacity="0" d="M 21.5 63 Q 30.1 61.9 32 67.5 L 33 74.5 L 28.5 80 L 21.5 81 L 16 76.5 L 15 69.5 L 19.5 64 L 21.5 63 Z " /><path fill="rgb(0,0,0)" stroke="rgb(0,0,0)" stroke-width="1" opacity="0" d="M 69.5 63 Q 78.1 61.9 80 67.5 L 81 74.5 L 76.5 80 L 69.5 81 L 64 76.5 L 63 69.5 L 67.5 64 L 69.5 63 Z " /><path fill="rgb(72,116,44)" stroke="rgb(72,116,44)" stroke-width="1" opacity="0.9882352941176471" d="M 54.5 11 Q 52.9 12.8 56 14.5 L 54.5 16 L 53 15.5 L 55 14.5 L 53 14 L 54.5 11 Z " /><path fill="rgb(72,116,44)" stroke="rgb(72,116,44)" stroke-width="1" opacity="0.9882352941176471" d="M 64.5 14 L 67 15.5 L 65.5 15 L 64.5 14 Z " /><path fill="rgb(72,116,44)" stroke="rgb(72,116,44)" stroke-width="1" opacity="0.9882352941176471" d="M 53.5 17 L 56 18.5 L 55.5 20 L 55 18 L 53.5 17 Z " /><path fill="rgb(72,116,44)" stroke="rgb(72,116,44)" stroke-width="1" opacity="0.9882352941176471" d="M 65.5 17 L 67 19.5 L 65 18.5 L 65.5 17 Z " /><path fill="rgb(72,116,44)" stroke="rgb(72,116,44)" stroke-width="1" opacity="0.9882352941176471" d="M 64.5 21 L 63.5 23 L 64.5 21 Z " /><path fill="rgb(72,116,44)" stroke="rgb(72,116,44)" stroke-width="1" opacity="0.9882352941176471" d="M 55.5 28 L 56.5 30 L 55.5 28 Z " /><path fill="rgb(72,116,44)" stroke="rgb(72,116,44)" stroke-width="1" opacity="0.9882352941176471" d="M 45.5 29 L 47.5 30 L 49.5 29 L 51.5 32 L 48.5 30 L 45.5 32 L 43.5 31 L 42 31.5 L 45.5 29 Z " /><path fill="rgb(72,116,44)" stroke="rgb(72,116,44)" stroke-width="1" opacity="0.9882352941176471" d="M 56.5 31 L 57.5 33 L 60 32 L 59.5 34 L 58 33.5 L 56.5 36 L 56 33.5 L 56.5 31 Z " /><path fill="rgb(72,116,44)" stroke="rgb(72,116,44)" stroke-width="1" opacity="0.9882352941176471" d="M 38.5 33 L 39.5 35 L 37.5 35 L 36 34.5 L 38.5 33 Z " /><path fill="rgb(72,116,44)" stroke="rgb(72,116,44)" stroke-width="1" opacity="0.9882352941176471" d="M 35.5 36 L 40 39.5 L 37 39.5 Q 39.3 38.3 36.5 37 L 35 37 Q 36.5 40.7 33.5 40 L 34 38.5 L 35.5 36 Z " /><path fill="rgb(72,116,44)" stroke="rgb(72,116,44)" stroke-width="1" opacity="0.9882352941176471" d="M 60.5 37 L 60.5 39 L 62 39.5 L 60 40.5 L 59 38.5 L 60.5 37 Z " /><path fill="rgb(72,116,44)" stroke="rgb(72,116,44)" stroke-width="1" opacity="0.9882352941176471" d="M 43.5 40 L 41.5 43 L 40 42.5 L 43.5 40 Z " /><path fill="rgb(72,116,44)" stroke="rgb(72,116,44)" stroke-width="1" opacity="0.9882352941176471" d="M 29.5 41 L 30.5 44 L 32 43.5 Q 30.5 46.5 29 43.5 L 29.5 41 Z " /><path fill="rgb(72,116,44)" stroke="rgb(72,116,44)" stroke-width="1" opacity="0.9882352941176471" d="M 57.5 42 L 59.5 45 L 57.5 42 Z " /><path fill="rgb(72,116,44)" stroke="rgb(72,116,44)" stroke-width="1" opacity="0.9882352941176471" d="M 29.5 47 L 30.5 49 L 29.5 47 Z " /><path fill="rgb(72,116,44)" stroke="rgb(72,116,44)" stroke-width="1" opacity="0.9882352941176471" d="M 33.5 48 L 35 50.5 L 34 50.5 L 33.5 48 Z " /><path fill="rgb(72,116,44)" stroke="rgb(72,116,44)" stroke-width="1" opacity="0.9882352941176471" d="M 43.5 48 L 41.5 51 L 43.5 48 Z " /><path fill="rgb(72,116,44)" stroke="rgb(72,116,44)" stroke-width="1" opacity="0.9882352941176471" d="M 38.5 51 L 39.5 53 L 41 52.5 Q 41.8 54.8 39.5 54 L 37 53.5 L 38.5 51 Z " /><path fill="rgb(72,116,44)" stroke="rgb(72,116,44)" stroke-width="1" opacity="0.9882352941176471" d="M 43.5 51 L 45.5 51 L 49 52.5 L 46.5 55 L 43.5 51 Z M 46 52 L 46 53 L 48 53 L 46 52 Z " /><path fill="rgb(72,116,44)" stroke="rgb(72,116,44)" stroke-width="1" opacity="0.9882352941176471" d="M 24.5 56 L 25.5 58 Q 22.7 58.7 24.5 56 Z " /><path fill="rgb(72,116,44)" stroke="rgb(72,116,44)" stroke-width="1" opacity="0.9882352941176471" d="M 71.5 56 Q 73.8 55.3 73 57.5 L 71.5 56 Z " /><path fill="rgb(72,116,44)" stroke="rgb(72,116,44)" stroke-width="1" opacity="0.9882352941176471" d="M 20.5 57 L 22 57.5 L 20 58.5 L 20 60.5 L 21 62.5 L 19.5 62 L 17.5 61 L 17 63 L 14 61.5 L 15.5 59 L 18.5 61 L 20.5 57 Z " /><path fill="rgb(72,116,44)" stroke="rgb(72,116,44)" stroke-width="1" opacity="0.9882352941176471" d="M 68.5 57 L 69.5 59 Q 68.3 56.8 67 59.5 L 70 60.5 L 68.5 63 L 66 59.5 L 68.5 57 Z " /><path fill="rgb(72,116,44)" stroke="rgb(72,116,44)" stroke-width="1" opacity="0.9882352941176471" d="M 30.5 58 L 30.5 60 L 32.5 59 L 31.5 61 L 29 59.5 L 30.5 58 Z " /><path fill="rgb(72,116,44)" stroke="rgb(72,116,44)" stroke-width="1" opacity="0.9882352941176471" d="M 44.5 59 L 46 60.5 L 45.5 63 L 44 61.5 L 44.5 59 Z " /><path fill="rgb(72,116,44)" stroke="rgb(72,116,44)" stroke-width="1" opacity="0.9882352941176471" d="M 71.5 59 L 73.5 60 L 75 59.5 Q 75.8 62.1 72.5 61 L 71.5 59 Z " /><path fill="rgb(72,116,44)" stroke="rgb(72,116,44)" stroke-width="1" opacity="0.9882352941176471" d="M 27.5 60 L 30 63.5 L 28 62.5 L 27.5 60 Z " /><path fill="rgb(72,116,44)" stroke="rgb(72,116,44)" stroke-width="1" opacity="0.9882352941176471" d="M 63.5 60 L 65 63 L 62 63.5 L 63 66 L 60 64.5 Q 63.1 62.8 61.5 61 L 63.5 60 Z " /><path fill="rgb(72,116,44)" stroke="rgb(72,116,44)" stroke-width="1" opacity="0.9882352941176471" d="M 31.5 62 Q 32.8 65.8 37 65 L 37.5 68 L 39 67.5 Q 39.8 69.8 37.5 69 L 35.5 69 Q 31.8 70.3 33 66.5 L 34 65.5 L 31.5 62 Z M 34 66 Q 33 69 36 68 Q 37 65 34 66 Z " /><path fill="rgb(72,116,44)" stroke="rgb(72,116,44)" stroke-width="1" opacity="0.9882352941176471" d="M 77 62 Q 79.7 60.9 79 63.5 L 79.5 65 L 77 64 L 77 62 Z " /><path fill="rgb(72,116,44)" stroke="rgb(72,116,44)" stroke-width="1" opacity="0.9882352941176471" d="M 12.5 63 L 15 64.5 L 12 66.5 L 12.5 68 L 10 67.5 L 11 65 L 13 64.5 L 12.5 63 Z " /><path fill="rgb(72,116,44)" stroke="rgb(72,116,44)" stroke-width="1" opacity="0.9882352941176471" d="M 84.5 66 L 86 68.5 L 84 68.5 L 83 70.5 L 87 72 L 86.5 74 L 82 71.5 L 81 67 L 83.5 68 L 84.5 66 Z " /><path fill="rgb(72,116,44)" stroke="rgb(72,116,44)" stroke-width="1" opacity="0.9882352941176471" d="M 46.5 67 L 47 73.5 L 45.5 76 L 45 74.5 L 46.5 67 Z " /><path fill="rgb(72,116,44)" stroke="rgb(72,116,44)" stroke-width="1" opacity="0.9882352941176471" d="M 61.5 68 L 63 68.5 L 61 69.5 L 62 71.5 L 60 70.5 L 61.5 68 Z " /><path fill="rgb(72,116,44)" stroke="rgb(72,116,44)" stroke-width="1" opacity="0.9882352941176471" d="M 10.5 69 L 12 69.5 L 10 70.5 L 10.5 72 Q 7.5 70.5 10.5 69 Z " /><path fill="rgb(72,116,44)" stroke="rgb(72,116,44)" stroke-width="1" opacity="0.9882352941176471" d="M 44.5 70 L 45 72.5 L 44 72.5 L 44.5 70 Z " /><path fill="rgb(72,116,44)" stroke="rgb(72,116,44)" stroke-width="1" opacity="0.9882352941176471" d="M 48.5 72 L 50.5 73 L 52 72.5 L 51.5 75 L 48 74 L 48.5 72 Z " /><path fill="rgb(72,116,44)" stroke="rgb(72,116,44)" stroke-width="1" opacity="0.9882352941176471" d="M 37.5 73 L 39 75.5 L 37 74.5 L 37.5 73 Z " /><path fill="rgb(72,116,44)" stroke="rgb(72,116,44)" stroke-width="1" opacity="0.9882352941176471" d="M 9 74 L 11 74.5 L 10.5 77 Q 7.5 77.7 9 74 Z " /><path fill="rgb(72,116,44)" stroke="rgb(72,116,44)" stroke-width="1" opacity="0.9882352941176471" d="M 57.5 75 L 61.5 76 L 63 75.5 L 60 77.5 L 59.5 76 L 58.5 78 L 57.5 75 Z " /><path fill="rgb(72,116,44)" stroke="rgb(72,116,44)" stroke-width="1" opacity="0.9882352941176471" d="M 83.5 75 L 87 76.5 L 84.5 77 L 83.5 75 Z " /><path fill="rgb(72,116,44)" stroke="rgb(72,116,44)" stroke-width="1" opacity="0.9882352941176471" d="M 34.5 77 L 38 78.5 L 35.5 79 L 34.5 77 Z " /><path fill="rgb(72,116,44)" stroke="rgb(72,116,44)" stroke-width="1" opacity="0.9882352941176471" d="M 80.5 77 L 83 78.5 L 82.5 81 L 78.5 81 L 75.5 82 L 75.5 81 L 79.5 79 Q 80.8 81.3 82 78.5 L 80.5 77 Z " /><path fill="rgb(72,116,44)" stroke="rgb(72,116,44)" stroke-width="1" opacity="0.9882352941176471" d="M 13.5 80 L 13.5 82 Q 15.8 81.3 15 83.5 L 12 81.5 L 13.5 80 Z " /><path fill="rgb(72,116,44)" stroke="rgb(72,116,44)" stroke-width="1" opacity="0.9882352941176471" d="M 29.5 80 L 28.5 82 L 27 81.5 L 29.5 80 Z " /><path fill="rgb(72,116,44)" stroke="rgb(72,116,44)" stroke-width="1" opacity="0.9882352941176471" d="M 35.5 80 L 36 82 L 31.5 85 L 31 83 L 35.5 80 Z " /><path fill="rgb(72,116,44)" stroke="rgb(72,116,44)" stroke-width="1" opacity="0.9882352941176471" d="M 18.5 81 Q 20.8 80.3 20 82.5 L 18 82.5 L 17.5 85 L 16 82.5 L 18.5 81 Z " /><path fill="rgb(72,116,44)" stroke="rgb(72,116,44)" stroke-width="1" opacity="0.9882352941176471" d="M 65.5 82 Q 67 85.5 68.5 83 L 70 83.5 L 67.5 85 L 65.5 82 Z " /><path fill="rgb(72,116,44)" stroke="rgb(72,116,44)" stroke-width="1" opacity="0.9882352941176471" d="M 82.5 82 L 81.5 84 L 82.5 82 Z " /><path fill="rgb(72,116,44)" stroke="rgb(72,116,44)" stroke-width="1" opacity="0.9882352941176471" d="M 25.5 83 L 24.5 85 L 25.5 83 Z " /><path fill="rgb(72,116,44)" stroke="rgb(72,116,44)" stroke-width="1" opacity="0.9882352941176471" d="M 74.5 83 L 76.5 84 L 78 83.5 Q 78.8 85.8 76.5 85 L 75 85.5 L 75.5 84 L 73.5 85 L 74.5 83 Z " /><path fill="rgb(72,116,44)" stroke="rgb(72,116,44)" stroke-width="1" opacity="0.9882352941176471" d="M 27.5 84 L 30 85.5 L 27.5 87 L 27.5 84 Z " /><path fill="rgb(72,116,44)" stroke="rgb(72,116,44)" stroke-width="1" opacity="0.9882352941176471" d="M 19.5 85 L 21.5 85 Q 23.8 84.3 23 86.5 L 20.5 87 Q 17.7 87.7 19.5 85 Z " /><path fill="rgb(72,116,44)" stroke="rgb(72,116,44)" stroke-width="1" opacity="0.9882352941176471" d="M 71.5 86 L 74 86.5 L 71.5 87 L 71.5 86 Z " /><path fill="rgb(72,116,44)" stroke="rgb(72,116,44)" stroke-width="1" opacity="1" d="M 57.5 9 Q 64 8 66 11.5 L 65.5 13 Q 67.8 12.3 67 14.5 L 67 16.5 L 66 21 L 62.5 23 L 57.5 23 L 54 20.5 L 53 18.5 L 55 17.5 L 53 16.5 L 55 15.5 L 53 14.5 L 55 13.5 L 54 12.5 L 57.5 9 Z " /><path fill="rgb(72,116,44)" stroke="rgb(72,116,44)" stroke-width="1" opacity="1" d="M 48.5 24 L 53 25 L 53.5 28 L 55 27.5 L 56.5 30 L 59 31.5 Q 56.8 32.8 59.5 34 L 63 36.5 L 62 38.5 L 67.5 41 L 80 41 L 80 48 L 63 48 L 62.5 46 Q 61.3 48.3 60 45.5 L 56.5 39 L 54.5 39 L 51.5 41 L 50 40.5 L 48.5 43 L 47 43.5 L 47.5 45 L 45.5 44 L 45 48.5 L 46.5 51 L 45 51.5 L 49 53.5 Q 48.3 56.1 51 55 L 51 57.5 L 52 58.5 L 52 71.5 L 51.5 76 L 47.5 75 L 46 75.5 Q 46.8 73.3 44.5 74 L 45 72.5 L 44 64.5 L 44 58.5 L 42.5 55 L 40.5 55 Q 33.1 52.4 29 46.5 L 31 41.5 Q 28.7 40.3 31.5 39 Q 33.8 39.8 33 37.5 L 36.5 35 L 38 35.5 L 37 33.5 L 45.5 26 L 47 26.5 L 48.5 24 Z M 48 25 L 48 27 L 50 26 L 48 25 Z M 57 31 Q 55 34 58 35 L 59 35 L 57 31 Z M 35 37 L 33 40 L 35 40 L 35 37 Z M 61 39 L 60 41 L 62 40 L 61 39 Z M 41 45 Q 39 48 42 47 L 41 45 Z M 35 49 Q 33 52 36 51 L 35 49 Z M 41 49 L 41 51 L 43 50 L 41 49 Z M 41 52 L 39 54 L 41 54 L 41 52 Z M 46 53 L 47 56 L 48 54 L 46 53 Z M 46 58 L 46 60 L 48 59 L 46 58 Z M 47 67 L 46 74 L 47 74 L 47 67 Z M 49 72 L 48 74 L 51 74 L 49 72 Z " /><path fill="rgb(72,116,44)" stroke="rgb(72,116,44)" stroke-width="1" opacity="1" d="M 19.5 57 L 21.5 58 L 23.5 57 L 25.5 58 L 28.5 57 L 30.5 59 L 36 62.5 L 38 67.5 L 37 68.5 L 38.5 71 L 37 71.5 L 39 72.5 L 36 74.5 L 36.5 76 L 39 74.5 L 37.5 78 L 34.5 77 L 35.5 79 Q 37.8 78.3 37 80.5 Q 35 78.8 33 82.5 Q 35.3 83.8 32.5 85 L 32.5 83 Q 29.9 82.2 31 85.5 L 30 85.5 L 29.5 84 L 28.5 87 L 26.5 87 Q 22.1 88.5 23 85.5 L 21 84.5 L 22 86.5 L 19.5 85 L 18.5 86 L 15 85 Q 16.5 81.3 13.5 82 L 11 80.5 L 11.5 79 Q 9.3 79.8 10 77.5 L 10.5 74 Q 7.9 74.8 9 71.5 L 9 69.5 Q 8.3 67.3 10.5 68 L 10 66.5 L 13.5 61 L 17 63 Q 18.1 60.3 15.5 61 L 15.5 60 L 17.5 61 L 18.5 59 L 17 58.5 L 19.5 57 Z M 20 60 L 18 62 L 20 62 L 20 60 Z M 28 60 L 28 62 L 27 62 L 22 61 L 17 65 Q 14 64 15 68 L 12 73 L 14 73 Q 12 75 15 77 Q 14 80 17 79 L 20 83 L 22 82 L 24 82 L 27 83 L 31 81 L 34 76 L 34 72 Q 33 68 36 69 L 36 68 Q 33 69 34 66 L 31 65 Q 32 62 29 63 L 29 60 L 28 60 Z M 13 63 L 14 65 L 15 65 L 13 63 Z M 11 65 L 11 67 L 13 66 L 11 65 Z M 35 65 L 35 66 Q 37 65 36 68 L 37 68 Q 38 64 35 65 Z M 12 68 L 10 70 L 12 70 L 12 68 Z M 17 82 L 17 84 Q 16 86 19 85 L 18 84 Q 19 81 17 82 Z " /><path fill="rgb(72,116,44)" stroke="rgb(72,116,44)" stroke-width="1" opacity="1" d="M 67.5 57 L 69.5 57 L 72.5 58 L 74.5 57 L 76.5 57 L 79.5 60 L 83 61.5 Q 82.3 63.8 84.5 63 L 84.5 65 Q 86.8 64.3 86 66.5 L 87 72 L 83 70.5 L 84 68.5 L 82 68.5 L 82.5 67 L 80 65.5 L 78.5 61 L 76 62.5 L 75.5 61 L 71.5 62 L 68 61.5 L 67.5 63 L 66 62.5 L 61 68.5 L 61.5 70 L 60 69.5 L 62 72.5 L 60 76.5 L 60.5 78 L 63 76.5 L 62 78.5 L 64 78.5 L 63.5 80 L 72.5 83 L 80 79.5 Q 79.3 77.3 81.5 78 L 82 75.5 L 83 73.5 L 82.5 72 L 87 74.5 L 86.5 76 L 86 74 L 84 74.5 L 84.5 77 L 86 77.5 L 84 78 L 85 80.5 L 79 83.5 L 81 84.5 L 74.5 87 Q 72.5 83 70.5 87 L 68.5 86 Q 67 88.5 65.5 85 L 59 80.5 L 58 78.5 L 60 75.5 L 57 74.5 L 59 73.5 L 57 72.5 L 59 71.5 L 57 70.5 L 57 68.5 L 58.5 66 L 60 66.5 L 59 63.5 L 61.5 62 L 65 63 L 64.5 61 Q 63.3 63.3 62 60.5 L 67.5 57 Z M 75 59 L 72 61 L 75 61 L 75 59 Z M 63 64 L 61 66 L 63 66 L 63 64 Z M 84 66 L 85 68 Q 86 65 84 66 Z M 66 81 L 65 84 L 67 84 L 66 81 Z M 75 83 L 74 85 L 76 84 L 75 83 Z M 78 83 L 76 85 L 78 85 L 78 83 Z " /><path fill="rgb(71,116,44)" stroke="rgb(71,116,44)" stroke-width="1" opacity="0.9764705882352941" d="M 45.5 25 Q 47.8 24.3 47 26.5 L 45.5 25 Z " /><path fill="rgb(71,116,44)" stroke="rgb(71,116,44)" stroke-width="1" opacity="0.9764705882352941" d="M 48.5 25 L 50 27.5 L 48 26.5 L 48.5 25 Z " /><path fill="rgb(71,116,44)" stroke="rgb(71,116,44)" stroke-width="1" opacity="0.9764705882352941" d="M 39.5 30 L 33 37.5 Q 33.8 39.8 31.5 39 L 39.5 30 Z " /><path fill="rgb(71,116,44)" stroke="rgb(71,116,44)" stroke-width="1" opacity="0.9764705882352941" d="M 54.5 39 L 59 42.5 L 57.5 42 L 54.5 39 Z " /><path fill="rgb(71,116,44)" stroke="rgb(71,116,44)" stroke-width="1" opacity="0.9764705882352941" d="M 48.5 41 L 49.5 43 L 48.5 41 Z " /><path fill="rgb(71,116,44)" stroke="rgb(71,116,44)" stroke-width="1" opacity="0.9764705882352941" d="M 62.5 43 L 63.5 45 L 62.5 43 Z " /><path fill="rgb(71,116,44)" stroke="rgb(71,116,44)" stroke-width="1" opacity="0.9764705882352941" d="M 41.5 44 L 41 45.5 L 40.5 47 L 40 45.5 L 41.5 44 Z " /><path fill="rgb(71,116,44)" stroke="rgb(71,116,44)" stroke-width="1" opacity="0.9764705882352941" d="M 46.5 45 L 45.5 47 L 46.5 45 Z " /><path fill="rgb(71,116,44)" stroke="rgb(71,116,44)" stroke-width="1" opacity="0.9764705882352941" d="M 31.5 49 L 32.5 51 L 31.5 49 Z " /><path fill="rgb(71,116,44)" stroke="rgb(71,116,44)" stroke-width="1" opacity="0.9764705882352941" d="M 47.5 50 L 48.5 52 L 47.5 50 Z " /><path fill="rgb(71,116,44)" stroke="rgb(71,116,44)" stroke-width="1" opacity="0.9764705882352941" d="M 29.5 57 L 28.5 59 L 29.5 57 Z " /><path fill="rgb(71,116,44)" stroke="rgb(71,116,44)" stroke-width="1" opacity="0.9764705882352941" d="M 71.5 57 L 70.5 59 L 71.5 57 Z " /><path fill="rgb(71,116,44)" stroke="rgb(71,116,44)" stroke-width="1" opacity="0.9764705882352941" d="M 75.5 57 L 78 57.5 Q 75.9 60.8 75.5 57 Z " /><path fill="rgb(71,116,44)" stroke="rgb(71,116,44)" stroke-width="1" opacity="0.9764705882352941" d="M 16.5 58 L 19 59.5 L 17.5 60 L 16.5 58 Z " /><path fill="rgb(71,116,44)" stroke="rgb(71,116,44)" stroke-width="1" opacity="0.9764705882352941" d="M 64.5 58 L 65.5 60 L 64.5 58 Z " /><path fill="rgb(71,116,44)" stroke="rgb(71,116,44)" stroke-width="1" opacity="0.9764705882352941" d="M 76.5 60 L 75.5 62 L 76.5 60 Z " /><path fill="rgb(71,116,44)" stroke="rgb(71,116,44)" stroke-width="1" opacity="0.9764705882352941" d="M 46.5 62 L 47.5 64 L 46.5 62 Z " /><path fill="rgb(71,116,44)" stroke="rgb(71,116,44)" stroke-width="1" opacity="0.9764705882352941" d="M 36.5 63 L 37.5 65 L 36.5 63 Z " /><path fill="rgb(71,116,44)" stroke="rgb(71,116,44)" stroke-width="1" opacity="0.9764705882352941" d="M 58.5 64 L 59.5 66 L 58 66.5 L 58.5 68 Q 55.8 66.8 58 65.5 L 58.5 64 Z " /><path fill="rgb(71,116,44)" stroke="rgb(71,116,44)" stroke-width="1" opacity="0.9764705882352941" d="M 63.5 66 L 62.5 68 L 63.5 66 Z " /><path fill="rgb(71,116,44)" stroke="rgb(71,116,44)" stroke-width="1" opacity="0.9764705882352941" d="M 14.5 68 L 13.5 72 Q 10 70 14.5 68 Z " /><path fill="rgb(71,116,44)" stroke="rgb(71,116,44)" stroke-width="1" opacity="0.9764705882352941" d="M 39.5 71 L 40 72.5 L 38 73.5 L 39.5 71 Z " /><path fill="rgb(71,116,44)" stroke="rgb(71,116,44)" stroke-width="1" opacity="0.9764705882352941" d="M 34.5 72 L 39 77.5 L 36 75.5 L 35.5 74 L 32.5 78 L 33 76.5 L 35 73.5 L 34.5 72 Z " /><path fill="rgb(71,116,44)" stroke="rgb(71,116,44)" stroke-width="1" opacity="0.9764705882352941" d="M 61.5 73 L 61.5 76 Q 58.5 74.5 61.5 73 Z " /><path fill="rgb(71,116,44)" stroke="rgb(71,116,44)" stroke-width="1" opacity="0.9764705882352941" d="M 81.5 75 L 82.5 77 L 81.5 75 Z " /><path fill="rgb(71,116,44)" stroke="rgb(71,116,44)" stroke-width="1" opacity="0.9764705882352941" d="M 86.5 77 L 86 78.5 L 85.5 80 L 85 78.5 L 86.5 77 Z " /><path fill="rgb(71,116,44)" stroke="rgb(71,116,44)" stroke-width="1" opacity="0.9764705882352941" d="M 15.5 78 L 14.5 80 L 15.5 78 Z " /><path fill="rgb(71,116,44)" stroke="rgb(71,116,44)" stroke-width="1" opacity="0.9764705882352941" d="M 33.5 80 L 32.5 82 L 33.5 80 Z " /><path fill="rgb(71,116,44)" stroke="rgb(71,116,44)" stroke-width="1" opacity="0.9764705882352941" d="M 68.5 81 L 67.5 83 L 68.5 81 Z " /><path fill="rgb(71,116,44)" stroke="rgb(71,116,44)" stroke-width="1" opacity="0.9764705882352941" d="M 22.5 82 L 23.5 84 L 22.5 82 Z " /><path fill="rgb(71,116,44)" stroke="rgb(71,116,44)" stroke-width="1" opacity="0.9764705882352941" d="M 29.5 82 L 29.5 85 Q 26.5 83.5 29.5 82 Z " /><path fill="rgb(71,116,44)" stroke="rgb(71,116,44)" stroke-width="1" opacity="0.9764705882352941" d="M 20.5 83 L 21.5 85 L 20.5 83 Z " /><path fill="rgb(71,116,44)" stroke="rgb(71,116,44)" stroke-width="1" opacity="0.9764705882352941" d="M 67.5 85 L 68.5 87 L 66 86.5 L 67.5 85 Z " /><path fill="rgb(71,115,44)" stroke="rgb(71,115,44)" stroke-width="1" opacity="0.8745098039215686" d="M 53.5 25 L 57.5 30 L 53.5 25 Z " /><path fill="rgb(71,115,44)" stroke="rgb(71,115,44)" stroke-width="1" opacity="0.8745098039215686" d="M 43.5 26 L 40.5 30 L 43.5 26 Z " /><path fill="rgb(71,115,44)" stroke="rgb(71,115,44)" stroke-width="1" opacity="0.8745098039215686" d="M 60.5 33 L 62.5 36 L 60.5 33 Z " /><path fill="rgb(71,115,44)" stroke="rgb(71,115,44)" stroke-width="1" opacity="0.8745098039215686" d="M 64.5 38 L 65.5 40 L 64.5 38 Z " /><path fill="rgb(71,115,44)" stroke="rgb(71,115,44)" stroke-width="1" opacity="0.8745098039215686" d="M 30.5 39 L 29.5 41 L 30.5 39 Z " /><path fill="rgb(71,115,44)" stroke="rgb(71,115,44)" stroke-width="1" opacity="0.8745098039215686" d="M 53.5 39 L 49.5 44 L 53.5 39 Z " /><path fill="rgb(71,115,44)" stroke="rgb(71,115,44)" stroke-width="1" opacity="0.8745098039215686" d="M 67.5 40 L 80 40.5 L 67.5 41 L 67.5 40 Z " /><path fill="rgb(71,115,44)" stroke="rgb(71,115,44)" stroke-width="1" opacity="0.8745098039215686" d="M 28.5 43 L 29 45.5 L 28 45.5 L 28.5 43 Z " /><path fill="rgb(71,115,44)" stroke="rgb(71,115,44)" stroke-width="1" opacity="0.8745098039215686" d="M 29.5 48 L 31.5 51 L 29.5 48 Z " /><path fill="rgb(71,115,44)" stroke="rgb(71,115,44)" stroke-width="1" opacity="0.8745098039215686" d="M 35.5 52 L 36.5 54 L 35.5 52 Z " /><path fill="rgb(71,115,44)" stroke="rgb(71,115,44)" stroke-width="1" opacity="0.8745098039215686" d="M 49.5 52 L 50.5 54 L 49.5 52 Z " /><path fill="rgb(71,115,44)" stroke="rgb(71,115,44)" stroke-width="1" opacity="0.8745098039215686" d="M 20.5 56 L 23 56.5 L 20.5 57 L 20.5 56 Z " /><path fill="rgb(71,115,44)" stroke="rgb(71,115,44)" stroke-width="1" opacity="0.8745098039215686" d="M 25.5 56 L 28 56.5 L 25.5 57 L 25.5 56 Z " /><path fill="rgb(71,115,44)" stroke="rgb(71,115,44)" stroke-width="1" opacity="0.8745098039215686" d="M 68.5 56 L 71 56.5 L 68.5 57 L 68.5 56 Z " /><path fill="rgb(71,115,44)" stroke="rgb(71,115,44)" stroke-width="1" opacity="0.8745098039215686" d="M 73.5 56 L 76 56.5 L 73.5 57 L 73.5 56 Z " /><path fill="rgb(71,115,44)" stroke="rgb(71,115,44)" stroke-width="1" opacity="0.8745098039215686" d="M 14.5 59 L 11.5 63 L 14.5 59 Z " /><path fill="rgb(71,115,44)" stroke="rgb(71,115,44)" stroke-width="1" opacity="0.8745098039215686" d="M 33.5 59 L 36.5 63 L 33.5 59 Z " /><path fill="rgb(71,115,44)" stroke="rgb(71,115,44)" stroke-width="1" opacity="0.8745098039215686" d="M 62.5 59 L 59.5 63 L 62.5 59 Z " /><path fill="rgb(71,115,44)" stroke="rgb(71,115,44)" stroke-width="1" opacity="0.8745098039215686" d="M 81.5 59 L 84.5 63 L 81.5 59 Z " /><path fill="rgb(71,115,44)" stroke="rgb(71,115,44)" stroke-width="1" opacity="0.8745098039215686" d="M 17.5 64 L 16.5 66 L 17.5 64 Z " /><path fill="rgb(71,115,44)" stroke="rgb(71,115,44)" stroke-width="1" opacity="0.8745098039215686" d="M 30.5 64 L 31.5 66 L 30.5 64 Z " /><path fill="rgb(71,115,44)" stroke="rgb(71,115,44)" stroke-width="1" opacity="0.8745098039215686" d="M 65.5 64 L 64.5 66 L 65.5 64 Z " /><path fill="rgb(71,115,44)" stroke="rgb(71,115,44)" stroke-width="1" opacity="0.8745098039215686" d="M 78.5 64 L 79.5 66 L 78.5 64 Z " /><path fill="rgb(71,115,44)" stroke="rgb(71,115,44)" stroke-width="1" opacity="0.8745098039215686" d="M 8.5 68 L 9 70.5 L 8 70.5 L 8.5 68 Z " /><path fill="rgb(71,115,44)" stroke="rgb(71,115,44)" stroke-width="1" opacity="0.8745098039215686" d="M 39.5 68 L 40 70.5 L 39 70.5 L 39.5 68 Z " /><path fill="rgb(71,115,44)" stroke="rgb(71,115,44)" stroke-width="1" opacity="0.8745098039215686" d="M 56.5 68 L 57 70.5 L 56 70.5 L 56.5 68 Z " /><path fill="rgb(71,115,44)" stroke="rgb(71,115,44)" stroke-width="1" opacity="0.8745098039215686" d="M 8.5 73 L 9 75.5 L 8 75.5 L 8.5 73 Z " /><path fill="rgb(71,115,44)" stroke="rgb(71,115,44)" stroke-width="1" opacity="0.8745098039215686" d="M 16.5 78 L 17.5 80 L 16.5 78 Z " /><path fill="rgb(71,115,44)" stroke="rgb(71,115,44)" stroke-width="1" opacity="0.8745098039215686" d="M 31.5 78 L 30.5 80 L 31.5 78 Z " /><path fill="rgb(71,115,44)" stroke="rgb(71,115,44)" stroke-width="1" opacity="0.8745098039215686" d="M 64.5 78 L 65.5 80 L 64.5 78 Z " /><path fill="rgb(71,115,44)" stroke="rgb(71,115,44)" stroke-width="1" opacity="0.8745098039215686" d="M 79.5 78 L 78.5 80 L 79.5 78 Z " /><path fill="rgb(71,115,44)" stroke="rgb(71,115,44)" stroke-width="1" opacity="0.8745098039215686" d="M 11.5 81 L 14.5 85 L 11.5 81 Z " /><path fill="rgb(71,115,44)" stroke="rgb(71,115,44)" stroke-width="1" opacity="0.8745098039215686" d="M 36.5 81 L 33.5 85 L 36.5 81 Z " /><path fill="rgb(71,115,44)" stroke="rgb(71,115,44)" stroke-width="1" opacity="0.8745098039215686" d="M 59.5 81 L 62.5 85 L 59.5 81 Z " /><path fill="rgb(71,115,44)" stroke="rgb(71,115,44)" stroke-width="1" opacity="0.8745098039215686" d="M 84.5 81 L 81.5 85 L 84.5 81 Z " /><path fill="rgb(72,116,43)" stroke="rgb(72,116,43)" stroke-width="1" opacity="0.3137254901960784" d="M 56.5 8 L 58 8.5 L 54 10 L 52.5 14 L 52 12.5 L 54.5 9 L 56.5 8 Z " /><path fill="rgb(72,116,43)" stroke="rgb(72,116,43)" stroke-width="1" opacity="0.3137254901960784" d="M 62.5 8 L 67 10.5 L 68 13.5 L 67 13.5 L 66 10 Q 61.8 10 62.5 8 Z " /><path fill="rgb(72,116,43)" stroke="rgb(72,116,43)" stroke-width="1" opacity="0.3137254901960784" d="M 52.5 18 L 54 22 L 58 23.5 L 56.5 24 L 53 21.5 L 52.5 18 Z " /><path fill="rgb(72,116,43)" stroke="rgb(72,116,43)" stroke-width="1" opacity="0.3137254901960784" d="M 67.5 18 L 68 19.5 L 65.5 23 L 62.5 24 L 62.5 23 L 66 22 L 67.5 18 Z " /><path fill="rgb(72,116,43)" stroke="rgb(72,116,43)" stroke-width="1" opacity="0.3137254901960784" d="M 45.5 24 L 44.5 26 L 29.5 40 L 43.5 25 L 45.5 24 Z " /><path fill="rgb(72,116,43)" stroke="rgb(72,116,43)" stroke-width="1" opacity="0.3137254901960784" d="M 52.5 24 L 59 29.5 L 63 34.5 L 58 30.5 L 53.5 25 L 52.5 24 Z " /><path fill="rgb(72,116,43)" stroke="rgb(72,116,43)" stroke-width="1" opacity="0.3137254901960784" d="M 63.5 36 L 68 39.5 L 66.5 40 L 63.5 36 Z " /><path fill="rgb(72,116,43)" stroke="rgb(72,116,43)" stroke-width="1" opacity="0.3137254901960784" d="M 53.5 40 L 62 47.5 L 54.5 41 L 50.5 44 L 53.5 40 Z " /><path fill="rgb(72,116,43)" stroke="rgb(72,116,43)" stroke-width="1" opacity="0.3137254901960784" d="M 48.5 44 L 46 47.5 L 50.5 53 L 45 47.5 L 48.5 44 Z " /><path fill="rgb(72,116,43)" stroke="rgb(72,116,43)" stroke-width="1" opacity="0.3137254901960784" d="M 63.5 48 L 80 48.5 L 63.5 49 L 63.5 48 Z " /><path fill="rgb(72,116,43)" stroke="rgb(72,116,43)" stroke-width="1" opacity="0.3137254901960784" d="M 29.5 49 L 30.5 51 L 29.5 49 Z " /><path fill="rgb(72,116,43)" stroke="rgb(72,116,43)" stroke-width="1" opacity="0.3137254901960784" d="M 32.5 51 L 36 53.5 L 34.5 53 L 32.5 51 Z " /><path fill="rgb(72,116,43)" stroke="rgb(72,116,43)" stroke-width="1" opacity="0.3137254901960784" d="M 39.5 55 L 43 57.5 L 41.5 57 L 39.5 55 Z " /><path fill="rgb(72,116,43)" stroke="rgb(72,116,43)" stroke-width="1" opacity="0.3137254901960784" d="M 18.5 56 L 20 56.5 L 11 62.5 L 8.5 68 L 8 66.5 L 14.5 58 L 18.5 56 Z " /><path fill="rgb(72,116,43)" stroke="rgb(72,116,43)" stroke-width="1" opacity="0.3137254901960784" d="M 28.5 56 Q 35 57.5 38 62.5 L 40 67.5 L 39 67.5 Q 37.8 61.8 33.5 59 L 28.5 57 L 28.5 56 Z " /><path fill="rgb(72,116,43)" stroke="rgb(72,116,43)" stroke-width="1" opacity="0.3137254901960784" d="M 66.5 56 L 68 56.5 L 59 62.5 L 56.5 68 L 56 66.5 L 62.5 58 L 66.5 56 Z " /><path fill="rgb(72,116,43)" stroke="rgb(72,116,43)" stroke-width="1" opacity="0.3137254901960784" d="M 76.5 56 Q 83 57.5 86 62.5 L 88 68.5 L 87 68.5 Q 86.1 61.9 81.5 59 L 76.5 57 L 76.5 56 Z " /><path fill="rgb(72,116,43)" stroke="rgb(72,116,43)" stroke-width="1" opacity="0.3137254901960784" d="M 22.5 62 L 26 62.5 L 22.5 63 L 22.5 62 Z " /><path fill="rgb(72,116,43)" stroke="rgb(72,116,43)" stroke-width="1" opacity="0.3137254901960784" d="M 70.5 62 L 74 62.5 L 70.5 63 L 70.5 62 Z " /><path fill="rgb(72,116,43)" stroke="rgb(72,116,43)" stroke-width="1" opacity="0.3137254901960784" d="M 19.5 63 L 21 63.5 L 16 67.5 L 15.5 69 L 15 67.5 L 19.5 63 Z " /><path fill="rgb(72,116,43)" stroke="rgb(72,116,43)" stroke-width="1" opacity="0.3137254901960784" d="M 27.5 63 L 33 67.5 L 32.5 69 L 28.5 64 L 27.5 63 Z " /><path fill="rgb(72,116,43)" stroke="rgb(72,116,43)" stroke-width="1" opacity="0.3137254901960784" d="M 67.5 63 L 69 63.5 L 64 67.5 L 63.5 69 L 63 67.5 L 67.5 63 Z " /><path fill="rgb(72,116,43)" stroke="rgb(72,116,43)" stroke-width="1" opacity="0.3137254901960784" d="M 75.5 63 L 81 67.5 L 80.5 69 L 76.5 64 L 75.5 63 Z " /><path fill="rgb(72,116,43)" stroke="rgb(72,116,43)" stroke-width="1" opacity="0.3137254901960784" d="M 14.5 70 L 15 73.5 L 14 73.5 L 14.5 70 Z " /><path fill="rgb(72,116,43)" stroke="rgb(72,116,43)" stroke-width="1" opacity="0.3137254901960784" d="M 33.5 70 L 34 73.5 L 33 73.5 L 33.5 70 Z " /><path fill="rgb(72,116,43)" stroke="rgb(72,116,43)" stroke-width="1" opacity="0.3137254901960784" d="M 62.5 70 L 63 73.5 L 62 73.5 L 62.5 70 Z " /><path fill="rgb(72,116,43)" stroke="rgb(72,116,43)" stroke-width="1" opacity="0.3137254901960784" d="M 81.5 70 L 82 73.5 L 81 73.5 L 81.5 70 Z " /><path fill="rgb(72,116,43)" stroke="rgb(72,116,43)" stroke-width="1" opacity="0.3137254901960784" d="M 15.5 75 L 19.5 80 L 21 80.5 L 19.5 81 L 15 76.5 L 15.5 75 Z " /><path fill="rgb(72,116,43)" stroke="rgb(72,116,43)" stroke-width="1" opacity="0.3137254901960784" d="M 39.5 75 L 40 77.5 L 33.5 86 L 27.5 88 L 27.5 87 Q 34.1 86.1 37 81.5 L 39.5 75 Z " /><path fill="rgb(72,116,43)" stroke="rgb(72,116,43)" stroke-width="1" opacity="0.3137254901960784" d="M 56.5 75 Q 57.7 81.8 62.5 85 L 69 87.5 L 66.5 88 L 58 81.5 Q 55 79 56.5 75 Z " /><path fill="rgb(72,116,43)" stroke="rgb(72,116,43)" stroke-width="1" opacity="0.3137254901960784" d="M 63.5 75 L 67.5 80 L 69 80.5 L 67.5 81 L 63 76.5 L 63.5 75 Z " /><path fill="rgb(72,116,43)" stroke="rgb(72,116,43)" stroke-width="1" opacity="0.3137254901960784" d="M 80.5 75 L 81 76.5 L 77 79.5 L 80.5 75 Z " /><path fill="rgb(72,116,43)" stroke="rgb(72,116,43)" stroke-width="1" opacity="0.3137254901960784" d="M 87.5 75 L 88 77.5 L 81.5 86 L 75.5 88 L 75.5 87 Q 82.1 86.1 85 81.5 L 87.5 75 Z " /><path fill="rgb(72,116,43)" stroke="rgb(72,116,43)" stroke-width="1" opacity="0.3137254901960784" d="M 8.5 76 L 14.5 85 L 21 87.5 L 18.5 88 L 10 81.5 L 8.5 76 Z " /><path fill="rgb(72,116,43)" stroke="rgb(72,116,43)" stroke-width="1" opacity="0.3137254901960784" d="M 31.5 77 L 29.5 80 L 31.5 77 Z " /><path fill="rgb(72,116,43)" stroke="rgb(72,116,43)" stroke-width="1" opacity="0.3137254901960784" d="M 22.5 81 L 26 81.5 L 22.5 82 L 22.5 81 Z " /><path fill="rgb(72,116,43)" stroke="rgb(72,116,43)" stroke-width="1" opacity="0.3137254901960784" d="M 70.5 81 L 74 81.5 L 70.5 82 L 70.5 81 Z " /></svg>